<?xml version="1.0" standalone="no"?>
<!DOCTYPE svg PUBLIC "-//W3C//DTD SVG 20010904//EN"
 "http://www.w3.org/TR/2001/REC-SVG-20010904/DTD/svg10.dtd">
<svg version="1.0" xmlns="http://www.w3.org/2000/svg"
 width="500.000000pt" height="500.000000pt" viewBox="0 0 500.000000 500.000000"
 preserveAspectRatio="xMidYMid meet">
<metadata>
Created by potrace 1.14, written by Peter Selinger 2001-2017
</metadata>
<g transform="translate(0.000000,500.000000) scale(0.100000,-0.100000)"
fill="#000000" stroke="none">
<path d="M2475 4902 c-65 -14 -90 -111 -52 -207 37 -95 48 -140 48 -204 0 -75
4 -76 13 -4 6 55 31 127 51 153 7 8 23 39 38 68 32 67 31 143 -4 173 -12 10
-25 20 -28 20 -19 4 -49 5 -66 1z"/>
<path d="M3493 4570 c-35 -21 -48 -37 -95 -113 -29 -47 -53 -71 -104 -104 -80
-51 -79 -54 4 -13 47 24 77 32 139 35 146 9 183 23 202 76 30 86 -69 166 -146
119z"/>
<path d="M1380 4560 c-34 -29 -39 -97 -10 -133 29 -37 59 -48 144 -53 85 -5
139 -19 193 -50 54 -31 68 -31 21 1 -20 14 -41 25 -46 25 -5 0 -15 7 -22 15
-7 8 -17 12 -23 8 -5 -3 -7 -1 -3 5 3 6 0 16 -7 24 -7 7 -26 36 -41 63 -46 80
-89 115 -140 115 -28 0 -51 -7 -66 -20z"/>
<path d="M2282 4280 c-2 -37 -51 -240 -61 -252 -3 -3 -24 -9 -46 -12 -141 -21
-262 -69 -402 -160 -73 -47 -198 -166 -208 -197 -4 -10 -10 -19 -14 -19 -10 0
-81 -106 -81 -120 0 -5 -4 -10 -8 -10 -11 0 -102 -191 -102 -212 0 -12 -30
-15 -182 -15 -259 0 -387 -13 -426 -46 -13 -11 -63 -102 -61 -112 0 -3 -2 -18
-5 -33 -12 -55 -16 -78 -22 -147 -15 -151 -6 -314 19 -385 21 -60 36 -79 80
-104 70 -40 159 -54 378 -57 77 -1 116 -5 116 -13 3 -102 58 -354 115 -521 20
-60 115 -266 127 -275 3 -3 24 -31 45 -62 130 -192 419 -369 656 -403 14 -2
36 -6 50 -9 52 -13 99 -17 250 -20 173 -5 248 3 395 40 55 14 105 26 110 27 6
2 51 22 100 46 165 80 310 211 418 378 32 50 115 225 121 256 3 12 14 54 26
92 23 78 69 299 69 330 0 11 3 45 8 75 l8 55 70 1 c122 2 250 13 277 23 14 5
28 7 31 5 3 -3 21 2 41 10 20 8 36 13 36 11 0 -10 61 33 79 56 16 21 33 66 48
129 7 30 7 257 -1 340 -24 282 -72 311 -505 315 -161 1 -195 3 -199 15 -20 65
-120 242 -182 320 -150 191 -326 298 -600 366 -35 8 -67 17 -71 20 -4 2 -1 25
7 51 28 91 12 136 -31 89 -40 -43 -62 -42 -217 10 -187 62 -245 93 -251 134
-3 19 -4 17 -5 -10z m-127 -1464 c80 -13 94 -16 119 -26 15 -5 26 -8 26 -6 0
10 142 -68 167 -91 11 -10 23 -7 60 12 25 14 51 29 57 34 13 10 149 57 191 66
87 18 261 24 345 13 130 -18 259 -153 275 -288 8 -61 4 -215 -5 -215 -2 0 -4
-9 -5 -20 -5 -42 -59 -163 -103 -230 -91 -139 -258 -273 -372 -297 -3 -1 -25
-8 -50 -15 -65 -20 -145 -27 -310 -27 -140 1 -254 8 -302 19 -13 2 -34 7 -48
9 -74 13 -128 26 -152 35 -16 6 -28 8 -28 5 0 -3 -13 4 -29 15 -16 12 -36 21
-45 21 -9 0 -16 5 -16 10 0 6 -7 10 -15 10 -8 0 -15 4 -15 8 0 4 -14 16 -31
26 -42 25 -149 136 -131 136 4 0 2 4 -4 8 -25 16 -113 212 -128 284 -3 13 -8
34 -11 48 -4 14 -7 68 -7 120 1 110 14 150 69 211 34 38 129 101 144 96 3 -1
12 3 20 10 8 6 39 14 69 18 30 4 56 8 57 9 5 4 172 -2 208 -8z"/>
<path d="M2050 2596 c-51 -16 -74 -35 -97 -81 -54 -111 23 -245 141 -245 115
0 197 117 157 223 -29 75 -128 126 -201 103z"/>
<path d="M2835 2589 c-103 -30 -141 -172 -68 -259 33 -40 92 -63 141 -56 119
16 184 130 135 234 -22 47 -34 59 -77 77 -39 16 -85 18 -131 4z"/>
<path d="M2373 2362 c-57 -23 -87 -49 -117 -102 -65 -114 1 -242 143 -278 51
-12 190 -10 211 3 8 6 17 10 20 10 21 3 74 41 97 72 25 32 28 45 28 108 0 62
-4 77 -28 113 -43 61 -101 85 -217 88 -71 2 -106 -2 -137 -14z m232 -28 c23
-4 58 -22 82 -41 54 -43 65 -87 34 -137 -25 -41 -78 -89 -124 -113 -54 -28
-207 -22 -207 8 0 5 -6 9 -12 9 -21 0 -94 75 -118 120 -15 27 -7 49 32 89 69
70 166 90 313 65z"/>
<path d="M2437 2260 l-88 -5 32 -50 c34 -54 85 -108 110 -117 26 -10 159 130
159 167 0 11 -75 13 -213 5z"/>
<path d="M1770 4296 c0 -2 8 -10 18 -17 15 -13 16 -12 3 4 -13 16 -21 21 -21
13z"/>
<path d="M1644 4210 c-43 -9 -54 -18 -69 -53 -16 -38 -9 -86 16 -112 15 -15
32 -20 72 -19 52 0 87 15 132 57 37 35 63 39 110 18 33 -14 42 -16 38 -6 -4
11 -84 58 -103 60 -38 5 -80 18 -80 24 0 8 -30 22 -70 33 -8 3 -29 2 -46 -2z"/>
<path d="M3220 4203 c-8 -3 -21 -10 -28 -16 -8 -6 -23 -12 -34 -14 -37 -6
-123 -52 -136 -74 l-13 -21 30 18 c17 10 31 22 31 26 0 4 11 3 25 -2 14 -5 25
-6 25 -2 1 4 11 -5 23 -19 40 -46 90 -76 135 -78 35 -2 47 2 72 28 26 26 29
35 24 68 -7 51 -50 89 -101 90 -21 1 -45 -1 -53 -4z"/>
<path d="M1018 900 l-23 -6 0 -409 0 -410 148 -3 148 -3 -2 56 c-2 63 -5 65
-92 64 -32 -1 -61 2 -64 5 -7 7 -10 235 -3 244 3 4 19 8 35 8 17 1 35 2 41 3
6 1 10 19 10 44 l-1 42 -46 3 -46 3 1 122 1 122 70 0 70 0 3 58 c3 55 2 57
-23 58 -154 3 -207 3 -227 -1z"/>
<path d="M2072 899 c-102 -10 -107 -18 -109 -197 l-1 -147 47 -45 c26 -25 71
-66 99 -91 45 -40 52 -50 53 -85 0 -21 2 -59 2 -82 2 -57 -4 -66 -47 -67 l-36
0 0 62 c0 65 -8 78 -47 76 -13 -1 -36 -1 -52 -2 l-30 -1 0 -95 c0 -85 2 -97
23 -122 23 -27 27 -27 140 -30 l116 -2 30 29 30 29 0 141 c0 89 -4 149 -12
163 -13 25 -44 55 -108 107 -82 66 -80 61 -80 160 l0 90 40 0 c44 0 41 9 42
-108 l0 -53 62 3 61 3 2 104 c2 102 1 104 -27 132 -16 16 -37 29 -47 30 -10 0
-34 1 -53 2 -19 1 -63 -1 -98 -4z"/>
<path d="M2463 902 c-25 -2 -34 -9 -39 -27 -7 -27 -12 -760 -6 -787 4 -15 18
-16 116 -14 120 3 150 11 182 47 33 37 41 75 39 189 -2 108 -18 164 -51 177
-20 7 -18 22 6 41 28 24 37 64 35 163 -4 144 -45 198 -158 206 -34 2 -69 5
-77 6 -8 1 -30 1 -47 -1z m137 -127 c13 -15 21 -155 12 -201 -3 -19 -11 -24
-33 -24 -28 0 -29 1 -30 53 0 28 -1 82 -2 120 -2 62 -1 67 19 67 12 0 27 -7
34 -15z m18 -455 c1 -66 -1 -117 -7 -123 -12 -12 -60 -19 -62 -9 -6 37 -4 240
3 249 6 7 19 8 36 4 l27 -7 3 -114z"/>
<path d="M2944 901 c-2 -2 -17 -4 -34 -3 -30 1 -31 0 -30 -46 0 -26 0 -208 0
-405 0 -197 2 -361 4 -366 4 -6 253 -8 277 -3 6 2 5 62 0 105 -1 5 -13 8 -28
7 -16 -1 -50 -2 -76 -1 l-48 1 3 127 3 128 40 0 40 0 3 48 3 47 -45 0 c-30 0
-46 4 -47 13 -3 38 1 220 5 226 3 4 32 6 66 6 34 -1 64 4 68 9 3 6 7 32 7 58
1 46 0 48 -27 49 -113 3 -180 3 -184 0z"/>
<path d="M3765 895 c-50 -21 -59 -48 -63 -178 -2 -69 1 -132 8 -150 6 -19 32
-48 63 -72 29 -22 69 -57 90 -78 l38 -38 -2 -87 c-3 -93 -19 -125 -57 -115
-17 4 -20 14 -20 61 0 32 0 63 -1 70 -1 8 -20 12 -61 12 -69 0 -63 11 -61
-130 2 -109 10 -115 156 -115 100 0 117 3 142 21 l28 21 3 144 c1 79 0 154 -3
167 -7 27 -44 66 -109 112 -69 50 -80 72 -82 168 l-1 82 38 0 38 0 3 -77 3
-77 58 0 c33 -1 61 2 63 6 2 4 5 43 6 86 2 141 -29 174 -167 178 -48 1 -92 -3
-110 -11z"/>
<path d="M4140 902 c-15 -5 -13 -109 3 -114 6 -2 30 -3 53 -2 l41 2 2 -331 c1
-183 3 -343 4 -357 2 -23 6 -25 55 -24 29 1 56 4 59 8 4 4 7 162 7 351 0 190
2 345 5 346 3 1 26 2 51 3 l45 1 3 58 c2 31 -1 57 -5 58 -25 3 -315 3 -323 1z"/>
<path d="M544 889 c-8 -14 -8 -795 1 -808 9 -16 102 -14 107 2 3 6 4 85 4 174
-1 90 2 163 6 163 5 0 8 -7 8 -15 0 -8 4 -23 9 -33 5 -9 20 -44 32 -77 12 -33
37 -96 55 -140 30 -73 36 -80 64 -83 16 -2 31 0 31 5 1 4 3 191 4 416 l2 407
-58 0 c-54 0 -59 -2 -60 -22 0 -13 -1 -99 -1 -191 -1 -101 -5 -164 -10 -159
-5 5 -10 16 -12 23 -2 14 -33 112 -43 139 -4 8 -7 17 -8 20 -1 3 -6 16 -12 30
-6 14 -21 53 -33 88 -12 34 -25 62 -29 63 -3 0 -16 2 -28 5 -12 2 -25 -1 -29
-7z"/>
<path d="M1365 828 c4 -40 8 -78 10 -85 2 -6 7 -38 10 -70 4 -32 8 -69 11 -83
2 -14 6 -45 10 -70 3 -25 7 -56 10 -70 2 -14 7 -43 10 -65 7 -52 10 -72 20
-120 4 -22 8 -51 10 -65 1 -14 3 -25 4 -25 0 0 3 -20 6 -45 5 -48 15 -60 56
-60 30 0 40 11 43 49 5 59 16 170 22 221 6 54 10 97 12 133 2 25 21 21 21 -5
0 -13 9 -75 19 -138 10 -63 22 -144 26 -180 4 -36 9 -68 12 -72 5 -10 65 -10
78 0 12 9 11 2 31 167 2 22 7 51 9 65 9 51 17 119 30 250 1 14 5 50 9 80 4 30
9 73 12 95 5 42 14 108 20 137 3 21 -27 31 -77 26 -32 -3 -34 -5 -41 -53 -4
-27 -10 -81 -13 -120 -11 -127 -26 -248 -30 -243 -4 4 -11 40 -19 108 -3 25
-8 54 -10 65 -6 33 -15 106 -22 170 -3 33 -11 63 -17 67 -16 10 -47 10 -48 1
0 -5 -2 -16 -4 -27 -2 -10 -7 -58 -10 -105 -15 -190 -26 -293 -32 -287 -4 4
-7 25 -17 111 -3 22 -10 76 -16 120 -6 44 -13 103 -16 130 -3 28 -8 53 -11 58
-2 4 -31 7 -64 7 l-59 0 5 -72z"/>
<path d="M3349 893 c-1 -8 -2 -16 -13 -128 -4 -38 -9 -81 -11 -95 -3 -22 -12
-100 -20 -170 -2 -14 -6 -45 -8 -70 -3 -25 -9 -72 -12 -105 -4 -33 -8 -62 -10
-65 -2 -3 -6 -41 -10 -85 -4 -44 -9 -83 -11 -86 -6 -11 17 -16 71 -15 l49 1 3
45 c9 126 4 115 52 115 36 0 44 -3 47 -20 2 -16 11 -108 14 -135 0 -4 27 -6
59 -7 66 -1 62 -7 47 82 -3 17 -7 61 -11 99 -3 38 -7 72 -10 76 -3 4 -7 34
-10 66 -2 33 -7 70 -9 84 -3 14 -8 56 -11 93 -4 37 -8 78 -10 89 -3 12 -7 53
-10 92 -3 39 -7 80 -9 91 -3 11 -5 28 -5 38 -1 15 -12 17 -81 17 -44 0 -80 -3
-81 -7z m88 -285 c1 -51 13 -214 18 -245 2 -15 -3 -23 -18 -27 -33 -8 -38 2
-32 67 3 34 8 94 11 132 9 118 19 153 21 73z"/>
</g>
</svg>
